<svg width="472" height="479" viewBox="0 0 472 479" fill="none" xmlns="http://www.w3.org/2000/svg">
<path fill-rule="evenodd" clip-rule="evenodd" d="M235.867 3.02763C233.151 5.74363 232.943 6.48663 232.943 13.5276V21.1046H225.167C216.374 21.1046 213.546 22.4176 211.428 27.4856C209.76 31.4786 210.53 35.4176 213.57 38.4576C216.297 41.1846 219.827 42.1046 227.568 42.1046C232.874 42.1046 232.943 42.1436 232.943 45.1046V48.1046H243.443H253.943V45.1046C253.943 42.1256 253.983 42.1046 259.693 42.0486C268.207 41.9646 272.097 40.3136 274.273 35.8586C276.505 31.2916 275.848 27.3046 272.315 23.9806C270.208 21.9966 268.442 21.5216 261.617 21.1046L253.443 20.6046L252.943 12.7656C252.494 5.72063 252.159 4.68163 249.637 2.51563C245.519 -1.02337 239.702 -0.806369 235.867 3.02763ZM213.822 56.9206C209.564 60.7256 209.344 66.9576 213.326 70.9456C215.657 73.2796 216.985 73.6656 224.212 74.1046L232.443 74.6046L232.733 82.8546L233.024 91.1046H243.484H253.943V82.6046V74.1046H261.807C268.921 74.1046 269.916 73.8596 272.243 71.5316C273.658 70.1166 275.101 67.6626 275.449 66.0786C276.27 62.3406 273.633 56.7396 270.348 55.2436C268.688 54.4866 259.304 54.1046 242.412 54.1046H216.975L213.822 56.9206ZM210.443 98.4946C206.755 100.161 203.425 103.685 202.01 107.42C201.381 109.08 200.943 118.622 200.943 130.67V151.105H242.943H284.943V129.753C284.943 109.256 284.853 108.268 282.693 105.095C281.455 103.277 279.173 100.848 277.622 99.6966C274.92 97.6936 273.492 97.5946 244.122 97.3726C220.057 97.1896 212.796 97.4316 210.443 98.4946ZM43.2665 126.706C42.8255 127.854 48.4305 134.086 63.0715 148.727C83.0255 168.681 83.5655 169.131 86.8135 168.481L90.1375 167.816L68.7995 146.461C56.9015 134.553 46.6685 125.105 45.6705 125.105C44.6865 125.105 43.6045 125.826 43.2665 126.706ZM176.064 158.815C169.41 162.093 168.951 163.995 168.947 188.295L168.943 209.984L210.193 210.312L251.443 210.64L258.217 213.257C261.943 214.697 276.383 222.226 290.306 229.99C304.229 237.753 316.168 244.105 316.836 244.105C317.775 244.105 317.983 235.38 317.748 205.855C317.458 169.506 317.342 167.431 315.409 164.105C311.191 156.847 313.882 157.106 242.943 157.129C185.758 157.148 179.107 157.316 176.064 158.815ZM85.3125 174.598C68.5085 178.252 57.1615 189.413 51.4995 207.855L50.8085 210.105H94.5015H138.193L137.59 207.089C135.485 196.563 124.298 182.743 113.943 177.876C108.446 175.293 98.8515 173.035 94.0095 173.184C92.5985 173.228 88.6845 173.864 85.3125 174.598ZM13.5895 216.211C8.3035 217.453 4.2715 220.542 1.9205 225.149C-1.8955 232.63 -1.3735 234.427 16.1935 274.239L32.4435 311.067L244.943 311.075L457.443 311.084L464.693 299.975C472.405 288.158 473.186 285.409 470.377 279.977C467.354 274.132 467.072 274.105 409.892 274.105H357.776L339.61 263.961C274.239 227.46 260.772 220.126 256.375 218.633C253.666 217.714 247.848 216.547 243.446 216.041C233.085 214.849 18.7105 215.008 13.5895 216.211ZM35.9435 318.423C35.9435 318.598 41.7965 331.944 48.9505 348.082C56.1045 364.221 61.7665 377.615 61.5335 377.848C60.2655 379.116 51.1955 373.363 42.4305 365.732C30.6255 355.455 23.0925 351.401 13.7105 350.275C6.36149 349.393 4.5625 349.89 5.0955 352.658C5.3655 354.058 7.0435 354.741 12.4625 355.654C21.9255 357.248 27.8495 360.47 37.9435 369.508C43.0565 374.087 49.4105 378.611 53.8905 380.863C61.2075 384.54 61.5365 384.605 72.8905 384.605C83.7795 384.605 84.8165 384.425 90.9435 381.477C94.7355 379.653 101.555 374.771 107.315 369.757C112.745 365.031 119.1 360.239 121.438 359.107C131.286 354.34 144.058 354.329 154.161 359.078C156.649 360.247 163.131 365.067 168.564 369.787C174.338 374.804 181.144 379.666 184.943 381.488C191.107 384.444 192.064 384.605 203.464 384.605C215.01 384.605 215.741 384.477 221.964 381.373C225.527 379.595 232.268 374.723 236.943 370.546C247.737 360.902 253.603 357.512 261.92 356.109C275.31 353.85 285.399 357.353 297.95 368.618C313.594 382.658 320.01 385.454 335.409 384.94C348.477 384.504 354.776 381.646 367.957 370.176C379.028 360.54 384.851 357.298 393.503 355.951C406.423 353.94 416.639 357.764 429.943 369.593C441.406 379.785 450.659 384.423 459.735 384.528C465.864 384.598 466.469 384.42 466.749 382.457C467.02 380.557 466.441 380.231 461.749 379.638C450.108 378.169 444.671 375.26 431.515 363.46L425.778 358.314L438.861 338.728C446.056 327.956 451.943 318.909 451.943 318.624C451.943 318.338 358.343 318.105 243.943 318.105C129.543 318.105 35.9435 318.248 35.9435 318.423ZM5.6935 396.663C5.2805 397.089 4.9435 398.255 4.9435 399.253C4.9435 401.172 6.15249 401.596 14.2935 402.535C21.0635 403.315 29.0485 407.878 38.6395 416.447C52.9755 429.254 64.7555 433.536 79.3835 431.259C88.9925 429.763 95.0875 426.446 106.527 416.49C119.375 405.308 124.701 402.751 136.141 402.273C149.839 401.701 155.047 404.071 171.486 418.358C180.824 426.473 187.335 429.831 196.503 431.259C211.088 433.53 222.824 429.318 236.943 416.748C241.618 412.585 248.143 407.7 251.443 405.892C257.199 402.739 257.891 402.605 268.443 402.605C278.414 402.605 279.958 402.86 284.943 405.335C287.968 406.837 294.493 411.697 299.443 416.135C313.949 429.14 325.527 433.447 340.147 431.277C349.984 429.817 357.826 425.608 368.443 416.089C373.393 411.651 379.918 406.802 382.943 405.312C387.912 402.867 389.506 402.605 399.443 402.605C409.494 402.605 410.89 402.841 415.624 405.337C418.473 406.839 424.998 411.719 430.124 416.18C440.985 425.634 448.096 429.551 457.319 431.157C465.101 432.512 467.209 431.999 466.763 428.859C466.482 426.882 465.645 426.509 459.943 425.825C451.023 424.754 444.923 421.526 434.142 412.171C418.542 398.634 410.955 395.487 396.097 396.389C385.029 397.061 376.591 401.181 364.943 411.6C360.234 415.812 353.553 420.631 349.964 422.404C344.047 425.327 342.66 425.605 333.964 425.605C325.373 425.605 323.808 425.301 317.943 422.498C314.033 420.629 308.056 416.332 302.943 411.713C297.662 406.943 291.623 402.629 286.995 400.32C279.75 396.707 279.245 396.605 268.495 396.605C258.182 396.605 257.009 396.813 250.943 399.72C247.166 401.531 240.254 406.458 234.443 411.482C228.943 416.237 221.968 421.361 218.943 422.867C214.05 425.303 212.338 425.605 203.425 425.605C194.123 425.605 192.945 425.373 186.925 422.358C183.36 420.571 176.618 415.689 171.943 411.507C161.788 402.423 157.405 399.72 149.483 397.657C138.493 394.795 125.314 396.351 116.443 401.556C114.243 402.847 108.618 407.325 103.943 411.507C99.2685 415.689 92.5265 420.571 88.9615 422.358C82.9205 425.383 81.7955 425.603 72.4615 425.574C63.6265 425.546 61.7945 425.223 56.9435 422.834C53.9185 421.344 46.9435 416.235 41.4435 411.48C29.7585 401.379 22.0045 397.31 12.8445 396.473C9.3245 396.151 6.1065 396.237 5.6935 396.663ZM5.9065 443.128C5.2685 443.522 4.9035 444.661 5.0955 445.658C5.3655 447.057 7.0445 447.742 12.4445 448.658C22.3395 450.334 27.0525 452.893 38.4365 462.768C51.3835 474.001 58.0145 477.189 69.8245 477.862C84.6915 478.71 92.4035 475.544 106.943 462.623C111.618 458.469 118.36 453.615 121.923 451.837C127.865 448.873 129.191 448.605 137.943 448.605C146.683 448.605 148.03 448.876 153.964 451.825C157.55 453.608 164.239 458.454 168.943 462.679C183.148 475.436 190.934 478.637 206.005 477.916C213.648 477.551 215.699 477.028 222.104 473.809C226.522 471.588 232.826 467.076 237.943 462.473C252.192 449.653 264.846 445.625 278.495 449.565C286.176 451.782 289.067 453.615 300.228 463.345C305.502 467.944 312.222 472.71 315.943 474.492C322.056 477.42 323.129 477.605 333.964 477.605C344.919 477.605 345.807 477.447 352.024 474.386C355.62 472.615 361.911 468.179 366.003 464.527C381.217 450.948 389.729 447.236 402.839 448.46C411.848 449.301 419.825 453.439 429.943 462.521C441.373 472.78 450.59 477.422 459.735 477.528C465.894 477.599 466.468 477.427 466.753 475.425C467.026 473.511 466.478 473.172 462.253 472.638C450.143 471.107 445.261 468.603 432.943 457.599C419.006 445.15 407.452 441.051 392.334 443.192C383.531 444.439 376.17 448.446 364.943 458.104C359.718 462.599 353.356 467.345 350.805 468.651C340.986 473.678 327.012 473.707 317.174 468.722C314.373 467.303 307.888 462.491 302.762 458.03C291.783 448.473 284.395 444.444 275.552 443.192C260.833 441.107 248.929 445.157 235.943 456.668C227.421 464.222 221.378 468.599 217.27 470.193C212.053 472.216 202.994 473.002 196.656 471.981C188.741 470.707 182.416 467.212 173.559 459.221C159.515 446.55 151.4 442.811 137.943 442.811C124.482 442.811 116.658 446.424 102.06 459.379C92.7705 467.624 87.0945 470.723 78.8775 472.036C66.0505 474.085 56.2305 470.826 44.6605 460.68C34.2265 451.53 28.2605 447.365 22.5805 445.265C16.9385 443.18 7.7325 442 5.9065 443.128Z" fill="#c2c2c2"/>
</svg>
